<svg width="705" height="242" viewBox="0 0 705 242" fill="none" xmlns="http://www.w3.org/2000/svg">
<rect y="81.1237" width="55.533" height="141.705" fill="black"/>
<rect x="72.7676" y="81.1237" width="79.4696" height="107.236" fill="black"/>
<path d="M253.312 93.1362H269.236V105.167H269.59C272.656 100.685 276.844 97.2055 282.152 94.7285C287.577 92.2515 293.121 91.013 298.783 91.013C305.27 91.013 311.109 92.1336 316.299 94.3747C321.607 96.6158 326.089 99.7415 329.745 103.752C333.52 107.762 336.409 112.48 338.415 117.906C340.42 123.214 341.422 128.935 341.422 135.068C341.422 141.32 340.42 147.158 338.415 152.584C336.409 157.892 333.52 162.551 329.745 166.561C326.089 170.454 321.607 173.52 316.299 175.762C311.109 178.003 305.27 179.123 298.783 179.123C292.767 179.123 287.106 177.885 281.798 175.408C276.49 172.813 272.421 169.333 269.59 164.969H269.236V226.894H253.312V93.1362ZM296.837 105.875C292.59 105.875 288.757 106.642 285.336 108.175C281.916 109.59 279.026 111.596 276.667 114.191C274.308 116.668 272.48 119.734 271.182 123.391C269.885 126.929 269.236 130.822 269.236 135.068C269.236 139.314 269.885 143.266 271.182 146.922C272.48 150.461 274.308 153.528 276.667 156.123C279.026 158.6 281.916 160.605 285.336 162.138C288.757 163.553 292.59 164.261 296.837 164.261C301.083 164.261 304.916 163.553 308.337 162.138C311.758 160.605 314.647 158.6 317.006 156.123C319.365 153.528 321.194 150.461 322.491 146.922C323.789 143.266 324.437 139.314 324.437 135.068C324.437 130.822 323.789 126.929 322.491 123.391C321.194 119.734 319.365 116.668 317.006 114.191C314.647 111.596 311.758 109.59 308.337 108.175C304.916 106.642 301.083 105.875 296.837 105.875ZM361.473 93.1362H377.397V106.052H377.751C378.812 103.811 380.228 101.806 381.997 100.036C383.766 98.1491 385.712 96.5568 387.836 95.2593C390.077 93.9618 392.495 92.9593 395.09 92.2515C397.685 91.4259 400.28 91.013 402.874 91.013C405.469 91.013 407.828 91.3669 409.952 92.0746L409.244 109.237C407.946 108.883 406.649 108.588 405.351 108.352C404.054 108.116 402.757 107.998 401.459 107.998C393.674 107.998 387.718 110.18 383.589 114.544C379.461 118.909 377.397 125.691 377.397 134.891V177H361.473V93.1362ZM436.763 135.068C436.763 139.314 437.412 143.266 438.709 146.922C440.007 150.461 441.835 153.528 444.194 156.123C446.553 158.6 449.443 160.605 452.863 162.138C456.284 163.553 460.118 164.261 464.364 164.261C468.61 164.261 472.444 163.553 475.864 162.138C479.285 160.605 482.175 158.6 484.534 156.123C486.893 153.528 488.721 150.461 490.018 146.922C491.316 143.266 491.965 139.314 491.965 135.068C491.965 130.822 491.316 126.929 490.018 123.391C488.721 119.734 486.893 116.668 484.534 114.191C482.175 111.596 479.285 109.59 475.864 108.175C472.444 106.642 468.61 105.875 464.364 105.875C460.118 105.875 456.284 106.642 452.863 108.175C449.443 109.59 446.553 111.596 444.194 114.191C441.835 116.668 440.007 119.734 438.709 123.391C437.412 126.929 436.763 130.822 436.763 135.068ZM419.778 135.068C419.778 128.935 420.899 123.214 423.14 117.906C425.499 112.598 428.683 107.939 432.694 103.929C436.704 99.9184 441.422 96.7927 446.848 94.5516C452.274 92.1926 458.112 91.013 464.364 91.013C470.615 91.013 476.454 92.1926 481.88 94.5516C487.305 96.7927 492.024 99.9184 496.034 103.929C500.044 107.939 503.17 112.598 505.411 117.906C507.77 123.214 508.95 128.935 508.95 135.068C508.95 141.202 507.77 146.981 505.411 152.407C503.17 157.715 500.044 162.374 496.034 166.384C492.024 170.277 487.305 173.402 481.88 175.762C476.454 178.003 470.615 179.123 464.364 179.123C458.112 179.123 452.274 178.003 446.848 175.762C441.422 173.402 436.704 170.277 432.694 166.384C428.683 162.374 425.499 157.715 423.14 152.407C420.899 146.981 419.778 141.202 419.778 135.068ZM573.838 106.937H551.014V144.976C551.014 147.335 551.073 149.694 551.191 152.053C551.309 154.294 551.722 156.358 552.43 158.246C553.255 160.015 554.435 161.489 555.968 162.669C557.62 163.73 559.979 164.261 563.045 164.261C564.933 164.261 566.879 164.084 568.884 163.73C570.889 163.377 572.717 162.728 574.369 161.784V176.292C572.481 177.354 570.004 178.062 566.938 178.415C563.989 178.887 561.689 179.123 560.038 179.123C553.904 179.123 549.127 178.297 545.706 176.646C542.404 174.877 539.927 172.636 538.275 169.923C536.742 167.21 535.798 164.202 535.445 160.9C535.209 157.479 535.091 154.058 535.091 150.638V106.937H516.69V93.1362H535.091V69.6048H551.014V93.1362H573.838V106.937ZM595.621 93.1362H611.544V177H595.621V93.1362ZM591.905 63.0584C591.905 59.8737 593.026 57.1609 595.267 54.9198C597.626 52.5607 600.398 51.3812 603.583 51.3812C606.767 51.3812 609.48 52.5607 611.721 54.9198C614.08 57.1609 615.26 59.8737 615.26 63.0584C615.26 66.2431 614.08 69.015 611.721 71.3741C609.48 73.6151 606.767 74.7357 603.583 74.7357C600.398 74.7357 597.626 73.6151 595.267 71.3741C593.026 69.015 591.905 66.2431 591.905 63.0584ZM681.472 114.191C679.585 111.832 677.226 109.885 674.395 108.352C671.682 106.701 668.321 105.875 664.31 105.875C660.536 105.875 657.233 106.701 654.402 108.352C651.689 109.885 650.333 112.185 650.333 115.252C650.333 117.729 651.1 119.734 652.633 121.268C654.284 122.801 656.172 124.04 658.295 124.983C660.536 125.927 662.895 126.635 665.372 127.106C667.849 127.578 669.972 127.991 671.741 128.345C675.162 129.17 678.347 130.173 681.295 131.353C684.362 132.532 686.957 134.066 689.08 135.953C691.321 137.84 693.032 140.14 694.211 142.853C695.509 145.566 696.157 148.868 696.157 152.761C696.157 157.479 695.155 161.548 693.15 164.969C691.144 168.272 688.549 170.984 685.365 173.108C682.18 175.231 678.523 176.764 674.395 177.708C670.385 178.651 666.315 179.123 662.187 179.123C655.228 179.123 649.094 178.062 643.787 175.938C638.597 173.815 633.938 169.923 629.809 164.261L641.84 154.353C644.435 156.948 647.325 159.248 650.51 161.253C653.695 163.259 657.587 164.261 662.187 164.261C664.192 164.261 666.197 164.084 668.203 163.73C670.326 163.259 672.154 162.61 673.687 161.784C675.339 160.841 676.636 159.72 677.58 158.423C678.641 157.007 679.172 155.415 679.172 153.646C679.172 151.286 678.406 149.34 676.872 147.807C675.457 146.274 673.687 145.094 671.564 144.268C669.559 143.325 667.377 142.617 665.018 142.145C662.777 141.555 660.772 141.084 659.002 140.73C655.582 139.904 652.338 138.961 649.271 137.899C646.205 136.837 643.492 135.422 641.133 133.653C638.774 131.883 636.886 129.642 635.471 126.929C634.056 124.217 633.348 120.855 633.348 116.845C633.348 112.48 634.233 108.706 636.002 105.521C637.889 102.218 640.307 99.5056 643.256 97.3825C646.323 95.2593 649.743 93.667 653.518 92.6054C657.41 91.5438 661.302 91.013 665.195 91.013C670.857 91.013 676.282 92.0746 681.472 94.1978C686.662 96.3209 690.79 99.8594 693.857 104.813L681.472 114.191Z" fill="black"/>
</svg>
